<svg width="17" height="17" viewBox="0 0 17 17" fill="none" xmlns="http://www.w3.org/2000/svg">
<g id="App.svg" clip-path="url(#clip0_17_4078)">
<path id="Vector" d="M8.36719 16.3281C12.7188 16.3281 16.3359 12.7188 16.3359 8.35938C16.3359 4.00781 12.7109 0.390625 8.35938 0.390625C4 0.390625 0.398438 4.00781 0.398438 8.35938C0.398438 12.7188 4.00781 16.3281 8.36719 16.3281ZM8.36719 11.0234C6.01562 11.0234 4.20312 11.8594 3.41406 12.7969C2.36719 11.625 1.73438 10.0703 1.73438 8.35938C1.73438 4.67969 4.67188 1.71875 8.35938 1.71875C12.0391 1.71875 15 4.67969 15.0078 8.35938C15.0078 10.0781 14.375 11.6328 13.3203 12.8047C12.5312 11.8672 10.7188 11.0234 8.36719 11.0234ZM8.36719 9.69531C9.86719 9.71094 11.0469 8.42969 11.0469 6.75C11.0469 5.17188 9.85938 3.85938 8.36719 3.85938C6.86719 3.85938 5.67188 5.17188 5.6875 6.75C5.69531 8.42969 6.85938 9.67969 8.36719 9.69531Z" fill="#002FA7" fill-opacity="0.8"/>
</g>
<defs>
<clipPath id="clip0_17_4078">
<rect width="17" height="17" fill="white"/>
</clipPath>
</defs>
</svg>
