<svg width="22" height="28" viewBox="0 0 22 28" fill="none" xmlns="http://www.w3.org/2000/svg">
<g id="61fb1af68d9e00d49b3fecc2_icon-buymeacoffee.svg" clip-path="url(#clip0_17_4036)">
<g id="Group">
<path id="Vector" d="M18.6927 6.51312L18.6735 6.50183L18.629 6.48828C18.647 6.50336 18.6693 6.51212 18.6927 6.51312Z" fill="white"/>
<path id="Vector_2" d="M18.7013 6.50972C18.6985 6.50936 18.6959 6.50873 18.6932 6.50781C18.6931 6.50958 18.6931 6.51138 18.6932 6.51315C18.6961 6.51276 18.6989 6.51157 18.7013 6.50972Z" fill="white"/>
<path id="Vector_3" d="M18.6931 6.51428H18.6972V6.51172L18.6931 6.51428Z" fill="white"/>
<path id="Vector_4" d="M18.9554 8.51006L18.9878 8.4916L18.9999 8.48482L19.0108 8.47314C18.9903 8.48199 18.9715 8.49451 18.9554 8.51006Z" fill="white"/>
<path id="Vector_5" d="M18.7488 6.55695L18.7171 6.52681L18.6957 6.51514C18.7072 6.5355 18.7263 6.55051 18.7488 6.55695Z" fill="white"/>
<path id="Vector_6" d="M10.7877 25.9678C10.7624 25.9787 10.7402 25.9959 10.7233 26.0175L10.7432 26.0048C10.7568 25.9924 10.7759 25.9777 10.7877 25.9678Z" fill="white"/>
<path id="Vector_7" d="M15.4106 25.0584C15.4106 25.0299 15.3967 25.0352 15.4 25.1368C15.4 25.1287 15.4035 25.1203 15.4049 25.1124C15.4069 25.0943 15.4084 25.0766 15.4106 25.0584Z" fill="white"/>
<path id="Vector_8" d="M14.9311 25.9678C14.9058 25.9787 14.8837 25.9959 14.8667 26.0175L14.8866 26.0048C14.9002 25.9924 14.9195 25.9777 14.9311 25.9678Z" fill="white"/>
<path id="Vector_9" d="M7.53203 26.1841C7.51283 26.1674 7.48934 26.1565 7.46423 26.1523C7.48457 26.1621 7.5049 26.172 7.51846 26.1795L7.53203 26.1841Z" fill="white"/>
<path id="Vector_10" d="M6.7997 25.4822C6.7967 25.4527 6.78759 25.424 6.77295 25.3979C6.78333 25.4249 6.79199 25.4527 6.79893 25.4807L6.7997 25.4822Z" fill="white"/>
</g>
<path id="Vector_11" d="M11.7207 12.9346C10.715 13.3651 9.57363 13.8533 8.09436 13.8533C7.47555 13.852 6.85972 13.7671 6.26367 13.6009L7.28675 24.1049C7.32296 24.5438 7.52296 24.9532 7.84704 25.2516C8.1711 25.55 8.59555 25.7154 9.03607 25.7154C9.03607 25.7154 10.4867 25.7908 10.9707 25.7908C11.4917 25.7908 13.0538 25.7154 13.0538 25.7154C13.4942 25.7154 13.9186 25.5497 14.2426 25.2513C14.5666 24.9529 14.7666 24.5438 14.8027 24.1049L15.8985 12.4976C15.4088 12.3304 14.9146 12.2192 14.3575 12.2192C13.394 12.2188 12.6176 12.5507 11.7207 12.9346Z" fill="#FFDD00"/>
<path id="Vector_12" d="M3.09644 8.45312L3.11376 8.46932L3.12506 8.47611C3.11636 8.46747 3.10676 8.45976 3.09644 8.45312Z" fill="white"/>
<path id="Vector_13" d="M20.6294 7.4838L20.4753 6.70669C20.337 6.00945 20.0233 5.35063 19.3076 5.09863C19.0782 5.018 18.8179 4.98336 18.642 4.81648C18.466 4.64962 18.414 4.39046 18.3734 4.15013C18.298 3.70903 18.2272 3.26755 18.15 2.82721C18.0834 2.44864 18.0306 2.02336 17.8569 1.67606C17.6309 1.20972 17.162 0.937003 16.6956 0.756569C16.4567 0.667368 16.2128 0.591908 15.9653 0.53056C14.8001 0.223184 13.5752 0.110178 12.3765 0.0457648C10.9379 -0.0336213 9.49535 -0.0097033 8.06011 0.117335C6.99184 0.214519 5.86667 0.332047 4.85151 0.701574C4.48049 0.836804 4.09814 0.999154 3.81602 1.28581C3.46984 1.63802 3.35683 2.1827 3.60957 2.62191C3.78926 2.9338 4.09363 3.15417 4.41646 3.29995C4.83694 3.48778 5.27607 3.63072 5.72657 3.72636C6.98091 4.00361 8.28011 4.11246 9.56159 4.1588C10.982 4.21611 12.4045 4.16965 13.8181 4.01978C14.1677 3.98136 14.5166 3.93528 14.865 3.88156C15.2752 3.81864 15.5384 3.28224 15.4175 2.90856C15.2729 2.46183 14.8841 2.28855 14.4446 2.35598C14.3798 2.36614 14.3154 2.37556 14.2505 2.38497L14.2039 2.39176C14.055 2.41061 13.906 2.42816 13.7571 2.4445C13.4495 2.47764 13.1411 2.50477 12.832 2.52587C12.1396 2.57407 11.4454 2.59629 10.7516 2.59743C10.0697 2.59743 9.38755 2.57821 8.70726 2.5334C8.39687 2.51306 8.08724 2.48719 7.77835 2.45579C7.63786 2.4411 7.49772 2.42567 7.35761 2.40833L7.22424 2.39138L7.19526 2.38725L7.05701 2.36728C6.77449 2.3247 6.49198 2.27575 6.21248 2.21659C6.18429 2.21034 6.15904 2.19466 6.14096 2.17212C6.12288 2.14959 6.11303 2.12156 6.11303 2.09268C6.11303 2.06378 6.12288 2.03576 6.14096 2.01323C6.15904 1.99069 6.18429 1.975 6.21248 1.96874H6.21776C6.45997 1.91713 6.70405 1.87306 6.94889 1.83464C7.03053 1.82184 7.11237 1.80928 7.19449 1.79697H7.19675C7.35006 1.7868 7.50414 1.7593 7.65669 1.74122C8.984 1.60316 10.3192 1.55609 11.6529 1.60034C12.3004 1.61918 12.9476 1.65722 13.5921 1.72277C13.7307 1.73709 13.8686 1.75215 14.0065 1.7691C14.0592 1.77551 14.1123 1.78303 14.1655 1.78944L14.2724 1.80488C14.5843 1.85134 14.8945 1.90772 15.2032 1.97402C15.6605 2.07346 16.2477 2.10585 16.4512 2.60684C16.516 2.76581 16.5453 2.94248 16.5811 3.10934L16.6267 3.32217C16.6279 3.32598 16.6288 3.3299 16.6293 3.33384C16.737 3.83609 16.8449 4.33834 16.9529 4.84059C16.9608 4.87769 16.961 4.91602 16.9534 4.9532C16.9459 4.9904 16.9307 5.0256 16.909 5.05668C16.8873 5.08775 16.8593 5.114 16.8269 5.13378C16.7945 5.15357 16.7585 5.16647 16.7208 5.17171H16.7179L16.6519 5.18074L16.5868 5.18939C16.3804 5.21628 16.1737 5.24138 15.9668 5.26474C15.5592 5.3112 15.151 5.35137 14.7421 5.38528C13.9298 5.45282 13.1158 5.49715 12.3001 5.51826C11.8844 5.52929 11.469 5.53445 11.0536 5.53369C9.40032 5.5324 7.74852 5.43629 6.10626 5.2459C5.92846 5.22482 5.75066 5.2022 5.57286 5.17923C5.71074 5.19695 5.47266 5.16566 5.42446 5.1589C5.31145 5.14307 5.19844 5.12663 5.08544 5.10955C4.70611 5.05265 4.32906 4.9826 3.95048 4.92119C3.49281 4.84586 3.0551 4.88354 2.64112 5.10955C2.30132 5.2955 2.02629 5.58065 1.85272 5.92696C1.67418 6.29611 1.62107 6.69802 1.54121 7.09468C1.46135 7.49132 1.33704 7.91811 1.38413 8.3253C1.48546 9.20413 2.09983 9.9183 2.98354 10.078C3.81488 10.2287 4.65075 10.3507 5.48886 10.4547C8.78121 10.858 12.1073 10.9062 15.41 10.5986C15.679 10.5735 15.9475 10.5461 16.2157 10.5164C16.2995 10.5073 16.3843 10.5169 16.4639 10.5447C16.5434 10.5725 16.6158 10.6178 16.6755 10.6772C16.7354 10.7365 16.7811 10.8085 16.8095 10.8879C16.8378 10.9672 16.8482 11.0519 16.8395 11.1358L16.7559 11.9486C16.5874 13.5912 16.4189 15.2337 16.2503 16.876C16.0746 18.6007 15.8976 20.3254 15.7197 22.0497C15.6694 22.5355 15.6192 23.0211 15.569 23.5064C15.5208 23.9845 15.5139 24.4776 15.4232 24.95C15.2801 25.6928 14.7772 26.149 14.0434 26.3158C13.3712 26.4688 12.6844 26.5493 11.995 26.5554C11.2306 26.5595 10.4668 26.5255 9.70246 26.5297C8.88656 26.5343 7.88723 26.459 7.25741 25.8517C6.70405 25.3185 6.62758 24.4833 6.55224 23.7611C6.45181 22.805 6.35224 21.8492 6.25353 20.8934L5.69981 15.5788L5.34159 12.14C5.33555 12.0831 5.32953 12.027 5.32388 11.9697C5.28093 11.5595 4.99051 11.158 4.53283 11.1787C4.14109 11.196 3.69585 11.529 3.7418 11.9697L4.00736 14.5191L4.55656 19.7928C4.71303 21.2907 4.86909 22.7888 5.02479 24.2873C5.05493 24.5743 5.08318 24.8622 5.11481 25.1493C5.28698 26.7178 6.48482 27.563 7.9682 27.801C8.83458 27.9404 9.72206 27.9691 10.6013 27.9834C11.7283 28.0016 12.8666 28.0449 13.9752 27.8407C15.6179 27.5391 16.8504 26.4424 17.0264 24.7409C17.0766 24.2497 17.1268 23.7584 17.1771 23.2669C17.344 21.6416 17.5108 20.0162 17.6773 18.3907L18.222 13.0795L18.4717 10.6453C18.4841 10.5246 18.5352 10.4111 18.6171 10.3217C18.699 10.2322 18.8076 10.1714 18.9267 10.1484C19.3964 10.0569 19.8455 9.90063 20.1796 9.5431C20.7115 8.974 20.8173 8.23189 20.6294 7.4838ZM2.95942 8.0089C2.96658 8.00551 2.9534 8.06689 2.94775 8.09553C2.94662 8.0522 2.94888 8.01378 2.95942 8.0089ZM3.00501 8.36147C3.00877 8.35882 3.02007 8.37391 3.03175 8.39198C3.01405 8.37539 3.00313 8.36298 3.00501 8.36147ZM3.04984 8.4206C3.06603 8.4481 3.0747 8.46543 3.04984 8.4206V8.4206ZM3.13986 8.49368H3.14212C3.14212 8.49633 3.14626 8.49895 3.14777 8.50161C3.14527 8.49869 3.14288 8.49604 3.13986 8.49368ZM18.9049 8.38443C18.7361 8.5449 18.4819 8.61949 18.2306 8.6568C15.413 9.07489 12.5543 9.28664 9.70587 9.19319C7.66724 9.12354 5.65009 8.89709 3.63182 8.61196C3.43405 8.58409 3.21972 8.54793 3.08373 8.40214C2.82759 8.12716 2.9534 7.57344 3.02007 7.24121C3.0811 6.93684 3.19787 6.53116 3.55987 6.48784C4.1249 6.42155 4.78107 6.65998 5.34008 6.74474C6.01309 6.84743 6.68861 6.92969 7.36663 6.99146C10.2604 7.25515 13.2026 7.21409 16.0835 6.82837C16.6087 6.75778 17.1318 6.6758 17.6532 6.58239C18.1176 6.49913 18.6325 6.34282 18.9132 6.82384C19.1056 7.15156 19.1313 7.59001 19.1015 7.96029C19.0924 8.12162 19.0223 8.27335 18.9049 8.38443Z" fill="white"/>
</g>
<defs>
<clipPath id="clip0_17_4036">
<rect width="21" height="28" fill="white" transform="translate(0.550049)"/>
</clipPath>
</defs>
</svg>
