<svg width="21" height="21" viewBox="0 0 21 21" fill="none" xmlns="http://www.w3.org/2000/svg">
<g id="62028bf2a112fd75474997fa_icon-linkedin.svg" clip-path="url(#clip0_17_4054)">
<path id="Vector" d="M20.55 2.27088V19.3297C20.55 19.7197 20.3951 20.0938 20.1193 20.3695C19.8435 20.6454 19.4695 20.8003 19.0795 20.8003H2.02064C1.63062 20.8003 1.25656 20.6454 0.980774 20.3695C0.704986 20.0938 0.550049 19.7197 0.550049 19.3297V2.27088C0.550049 1.88086 0.704986 1.50681 0.980774 1.23102C1.25656 0.95523 1.63062 0.800293 2.02064 0.800293H19.0795C19.4695 0.800293 19.8435 0.95523 20.1193 1.23102C20.3951 1.50681 20.55 1.88086 20.55 2.27088ZM6.4324 8.44735H3.49122V17.8591H6.4324V8.44735ZM6.69711 5.21206C6.69866 4.98958 6.65637 4.76898 6.57267 4.56284C6.48896 4.35671 6.36547 4.16908 6.20924 4.01068C6.05302 3.85227 5.86712 3.72618 5.66217 3.63963C5.45722 3.55306 5.23723 3.50772 5.01476 3.50618H4.96182C4.50938 3.50618 4.07549 3.6859 3.75557 4.00582C3.43566 4.32573 3.25593 4.75963 3.25593 5.21206C3.25593 5.66448 3.43566 6.09838 3.75557 6.4183C4.07549 6.73821 4.50938 6.91794 4.96182 6.91794C5.18431 6.92341 5.4057 6.88499 5.61333 6.80488C5.82097 6.72476 6.01079 6.60451 6.17194 6.45101C6.33309 6.29751 6.46242 6.11376 6.55252 5.91026C6.64263 5.70676 6.69177 5.48749 6.69711 5.265V5.21206ZM17.6089 12.1415C17.6089 9.31204 15.8089 8.21206 14.0206 8.21206C13.4351 8.18274 12.8521 8.30745 12.3299 8.57374C11.8076 8.84003 11.3643 9.23863 11.0441 9.72971H10.9618V8.44735H8.19711V17.8591H11.1383V12.8532C11.0958 12.3405 11.2573 11.8318 11.5877 11.4375C11.9181 11.0432 12.3908 10.7952 12.903 10.7474H13.0147C13.95 10.7474 14.6441 11.3356 14.6441 12.818V17.8591H17.5854L17.6089 12.1415Z" fill="white"/>
</g>
<defs>
<clipPath id="clip0_17_4054">
<rect width="20" height="20" fill="white" transform="translate(0.550049 0.800293)"/>
</clipPath>
</defs>
</svg>
