<svg width="20" height="20" viewBox="0 0 20 20" fill="none" xmlns="http://www.w3.org/2000/svg">
<path id="Vector" d="M9.99936 0C7.28391 0 6.94313 0.0118733 5.87662 0.0604072C4.8122 0.109149 4.08564 0.277664 3.4499 0.524916C2.79229 0.780292 2.23445 1.1219 1.67871 1.67786C1.12254 2.2336 0.780921 2.79143 0.524712 3.44882C0.276834 4.08476 0.108109 4.81152 0.0601995 5.87552C0.012498 6.94201 0 7.283 0 9.9984C0 12.7138 0.0120822 13.0535 0.0604078 14.12C0.109359 15.1844 0.277875 15.911 0.52492 16.5467C0.780513 17.2043 1.12212 17.7622 1.67809 18.3179C2.23362 18.8741 2.79146 19.2165 3.44865 19.4719C4.08481 19.7191 4.81158 19.8876 5.87579 19.9364C6.94229 19.9849 7.28287 19.9968 9.99811 19.9968C12.7138 19.9968 13.0535 19.9849 14.12 19.9364C15.1844 19.8876 15.9117 19.7191 16.548 19.4719C17.2054 19.2165 17.7624 18.8741 18.3179 18.3179C18.874 17.7622 19.2156 17.2043 19.4718 16.5469C19.7176 15.911 19.8864 15.1842 19.9364 14.1202C19.9843 13.0537 19.9968 12.7138 19.9968 9.9984C19.9968 7.283 19.9843 6.94222 19.9364 5.87573C19.8864 4.81131 19.7176 4.08476 19.4718 3.44903C19.2156 2.79143 18.874 2.2336 18.3179 1.67786C17.7617 1.1217 17.2055 0.780083 16.5473 0.524916C15.9099 0.277664 15.1829 0.109149 14.1185 0.0604072C13.052 0.0118733 12.7125 0 9.9962 0L9.99936 0ZM9.10242 1.80179C9.36863 1.80138 9.66567 1.80179 9.99936 1.80179C12.6689 1.80179 12.9854 1.81138 14.0395 1.85929C15.0144 1.90386 15.5435 2.06675 15.8959 2.20361C16.3625 2.38483 16.6952 2.60146 17.045 2.9514C17.3949 3.30135 17.6116 3.63463 17.7932 4.10122C17.93 4.45325 18.0932 4.98233 18.1375 5.95717C18.1854 7.01117 18.1958 7.32779 18.1958 9.99607C18.1958 12.6644 18.1854 12.981 18.1375 14.035C18.0929 15.0098 17.93 15.5389 17.7932 15.891C17.612 16.3575 17.3949 16.6898 17.045 17.0395C16.695 17.3895 16.3628 17.6061 15.8959 17.7873C15.5439 17.9248 15.0144 18.0873 14.0395 18.1318C12.9856 18.1798 12.6689 18.1903 9.99936 18.1903C7.32953 18.1903 7.01312 18.1798 5.95911 18.1318C4.98426 18.0869 4.45517 17.924 4.10251 17.7872C3.63591 17.6059 3.30263 17.3893 2.95268 17.0394C2.60274 16.6894 2.38611 16.357 2.20446 15.8902C2.06761 15.5382 1.90451 15.009 1.86014 14.0342C1.81223 12.9802 1.80265 12.6636 1.80265 9.99357C1.80265 7.32362 1.81223 7.00867 1.86014 5.95467C1.90472 4.97983 2.06761 4.45075 2.20446 4.0983C2.38569 3.63171 2.60274 3.29843 2.95268 2.94849C3.30263 2.59854 3.63591 2.38191 4.10251 2.20027C4.45496 2.06279 4.98426 1.90032 5.95911 1.85554C6.88147 1.81388 7.23892 1.80138 9.10242 1.7993V1.80179ZM15.3364 3.46195C14.674 3.46195 14.1366 3.99873 14.1366 4.66134C14.1366 5.32373 14.674 5.86115 15.3364 5.86115C15.9988 5.86115 16.5363 5.32373 16.5363 4.66134C16.5363 3.99894 15.9988 3.46195 15.3364 3.46195ZM9.99936 4.8638C7.16372 4.8638 4.86469 7.16281 4.86469 9.9984C4.86469 12.834 7.16372 15.1319 9.99936 15.1319C12.835 15.1319 15.1331 12.834 15.1331 9.9984C15.1331 7.16281 12.835 4.8638 9.99936 4.8638ZM9.99936 6.6656C11.8399 6.6656 13.3322 8.15765 13.3322 9.9984C13.3322 11.8389 11.8399 13.3312 9.99936 13.3312C8.15857 13.3312 6.6665 11.8389 6.6665 9.9984C6.6665 8.15765 8.15857 6.6656 9.99936 6.6656Z" fill="white"/>
</svg>
